<svg width="20" height="18" viewBox="0 0 20 18" fill="none" xmlns="http://www.w3.org/2000/svg">
<path d="M18.5579 1.16217e-06H5.33422C5.22585 -8.97906e-05 5.11852 0.0211652 5.01837 0.0625527C4.91821 0.10394 4.82719 0.16465 4.75049 0.241215C4.6738 0.31778 4.61294 0.408701 4.57138 0.508787C4.52983 0.608873 4.50839 0.716164 4.5083 0.824535V4.49997L12.1714 6.74996L19.3845 4.49997V0.824535C19.3844 0.716106 19.363 0.608758 19.3214 0.508627C19.2798 0.408496 19.2188 0.317544 19.1421 0.24097C19.0653 0.164395 18.9742 0.103701 18.874 0.0623538C18.7737 0.0210071 18.6663 -0.000180803 18.5579 1.16217e-06Z" fill="#41A5EE"/>
<path d="M19.3845 4.49998H4.5083V8.99995L12.1714 10.3499L19.3845 8.99995V4.49998Z" fill="#2B7CD3"/>
<path d="M4.5083 8.99995V13.4999L11.7207 14.3999L19.3845 13.4999V8.99995H4.5083Z" fill="#185ABD"/>
<path d="M5.33422 17.9999H18.5572C18.6657 18.0002 18.7732 17.979 18.8735 17.9377C18.9738 17.8964 19.065 17.8358 19.1418 17.7592C19.2187 17.6826 19.2797 17.5916 19.3213 17.4914C19.3629 17.3913 19.3844 17.2839 19.3845 17.1754V13.4999H4.5083V17.1754C4.50839 17.2837 4.52983 17.391 4.57138 17.4911C4.61294 17.5912 4.6738 17.6821 4.75049 17.7587C4.82719 17.8352 4.91821 17.896 5.01837 17.9373C5.11852 17.9787 5.22585 18 5.33422 17.9999Z" fill="#103F91"/>
<path opacity="0.1" d="M9.99273 3.59998H4.5083V14.8499H9.99273C10.2113 14.8488 10.4206 14.7617 10.5753 14.6073C10.73 14.453 10.8177 14.2439 10.8193 14.0254V4.42451C10.8177 4.20598 10.73 3.99689 10.5753 3.84255C10.4206 3.68822 10.2113 3.60106 9.99273 3.59998Z" fill="black"/>
<path opacity="0.2" d="M9.54204 4.04997H4.5083V15.2999H9.54204C9.76058 15.2988 9.96988 15.2117 10.1246 15.0573C10.2793 14.903 10.367 14.6939 10.3686 14.4754V4.87451C10.367 4.65597 10.2793 4.44689 10.1246 4.29255C9.96988 4.13821 9.76058 4.05106 9.54204 4.04997Z" fill="black"/>
<path opacity="0.2" d="M9.54204 4.04997H4.5083V14.3999H9.54204C9.76058 14.3988 9.96988 14.3117 10.1246 14.1573C10.2793 14.003 10.367 13.7939 10.3686 13.5754V4.87451C10.367 4.65597 10.2793 4.44689 10.1246 4.29255C9.96988 4.13821 9.76058 4.05106 9.54204 4.04997Z" fill="black"/>
<path opacity="0.2" d="M9.09135 4.04997H4.5083V14.3999H9.09135C9.30989 14.3988 9.51919 14.3117 9.67392 14.1573C9.82864 14.003 9.91632 13.7939 9.91796 13.5754V4.87451C9.91632 4.65597 9.82864 4.44689 9.67392 4.29255C9.51919 4.13821 9.30989 4.05106 9.09135 4.04997Z" fill="black"/>
<path d="M0.826611 4.04997H9.09133C9.31026 4.04979 9.5203 4.13653 9.6753 4.29114C9.8303 4.44575 9.91757 4.65558 9.91794 4.87451V13.1254C9.91757 13.3443 9.8303 13.5541 9.6753 13.7087C9.5203 13.8634 9.31026 13.9501 9.09133 13.9499H0.826611C0.718182 13.9501 0.610781 13.9289 0.510545 13.8876C0.410309 13.8462 0.319204 13.7855 0.242437 13.7089C0.16567 13.6324 0.104746 13.5414 0.0631476 13.4413C0.0215488 13.3412 9.08109e-05 13.2338 0 13.1254V4.87451C9.08109e-05 4.76608 0.0215488 4.65873 0.0631476 4.5586C0.104746 4.45847 0.16567 4.36752 0.242437 4.29094C0.319204 4.21437 0.410309 4.15367 0.510545 4.11233C0.610781 4.07098 0.718182 4.04979 0.826611 4.04997Z" fill="url(#paint0_linear_1513_2677)"/>
<path d="M3.39274 10.3765C3.40867 10.5038 3.41974 10.6146 3.42459 10.7095H3.44397C3.4509 10.6195 3.46613 10.5108 3.48897 10.3841C3.51182 10.2574 3.5319 10.1501 3.55059 10.0622L4.41943 6.31887H5.54373L6.44373 10.0061C6.49615 10.2342 6.53361 10.4654 6.55588 10.6984H6.57111C6.58765 10.4716 6.61886 10.2461 6.66457 10.0234L7.38387 6.31403H8.40641L7.14364 11.678H5.94804L5.09166 8.12925C5.06673 8.02678 5.03858 7.8934 5.0072 7.72909C4.97581 7.56479 4.95643 7.44479 4.94904 7.3691H4.9345C4.92481 7.45633 4.90543 7.58579 4.87635 7.75748C4.84727 7.92986 4.82443 8.05655 4.80712 8.13963L4.00197 11.6801H2.78629L1.5166 6.31887H2.55506L3.33805 10.0698C3.36142 10.171 3.37968 10.2734 3.39274 10.3765Z" fill="white"/>
<defs>
<linearGradient id="paint0_linear_1513_2677" x1="1.72661" y1="3.40198" x2="8.19134" y2="14.5979" gradientUnits="userSpaceOnUse">
<stop stop-color="#2368C4"/>
<stop offset="0.5" stop-color="#1A5DBE"/>
<stop offset="1" stop-color="#1146AC"/>
</linearGradient>
</defs>
</svg>
